<svg id="Capa_1" data-name="Capa 1" xmlns="http://www.w3.org/2000/svg" viewBox="0 0 667 50"><defs><style>.cls-1{fill:#00b1e3;}.cls-2{fill:#fff;}.cls-3{fill:#585856;}</style></defs><title>Mesa de trabajo 1</title><rect class="cls-1" x="290.81" y="12.39" width="4.95" height="4.95"/><path class="cls-2" d="M295.64,38.19V20.34h-4.7V38.17h4.7Zm31.15.18V34a11,11,0,0,1-1.69-.11A1.91,1.91,0,0,1,324,33.4a2.05,2.05,0,0,1-.49-1.08,11.33,11.33,0,0,1-.11-1.72V24.38h3.4v-4h-3.4V13.4h-4.7V30.65a15.29,15.29,0,0,0,.37,3.68,5.19,5.19,0,0,0,1.25,2.36A5,5,0,0,0,322.6,38a13.86,13.86,0,0,0,3.58.39Zm26.93-.18V12H349V38.19ZM314.16,22.1A7.08,7.08,0,0,0,308.7,20a6.84,6.84,0,0,0-3.09.69,6.55,6.55,0,0,0-2.34,1.9l-.25.33V20.34h-4.63V38.17h4.67V29a5.39,5.39,0,0,1,1.23-3.7,4,4,0,0,1,3-1.27,3.79,3.79,0,0,1,3.08,1.24,5.22,5.22,0,0,1,1,3.41h0v.06h0v9.42h4.74V28.06A8.47,8.47,0,0,0,314.16,22.1Zm32.42,7.14a9.81,9.81,0,0,0-.67-3.61A9.64,9.64,0,0,0,344,22.68a8.71,8.71,0,0,0-2.91-2,9.66,9.66,0,0,0-3.74-.7,9.22,9.22,0,0,0-3.63.72,9.49,9.49,0,0,0-2.94,2,9.09,9.09,0,0,0-2,2.95,9,9,0,0,0-.72,3.63,9.67,9.67,0,0,0,.68,3.62,9.12,9.12,0,0,0,1.92,3,8.71,8.71,0,0,0,3,2,9.79,9.79,0,0,0,3.83.74,10.08,10.08,0,0,0,7.93-3.51l-3.39-2.57a6.13,6.13,0,0,1-4.51,2,5.36,5.36,0,0,1-3.24-.91,4.53,4.53,0,0,1-1.69-2.49l-.06-.16h14V29.24Zm-14-1.64c0-1.3,1.5-3.58,4.72-3.59s4.74,2.27,4.74,3.57Zm26.47,8.34a1.77,1.77,0,0,0-.37-.55,1.76,1.76,0,0,0-1.22-.51,1.64,1.64,0,0,0-.67.14,1.72,1.72,0,0,0-.55.37,1.77,1.77,0,0,0-.37.55,1.91,1.91,0,0,0-.14.67,1.81,1.81,0,0,0,.14.66,1.77,1.77,0,0,0,.37.55,1.76,1.76,0,0,0,1.22.51,1.64,1.64,0,0,0,.67-.14,1.72,1.72,0,0,0,.55-.37,1.77,1.77,0,0,0,.37-.55,1.65,1.65,0,0,0,0-1.33Zm-.29,1.23a1.31,1.31,0,0,1-.3.46,1.42,1.42,0,0,1-.45.3,1.52,1.52,0,0,1-.57.1,1.54,1.54,0,0,1-.56-.1,1.36,1.36,0,0,1-.46-.3,1.4,1.4,0,0,1-.4-1,1.56,1.56,0,0,1,.1-.57,1.59,1.59,0,0,1,.3-.46,1.36,1.36,0,0,1,.46-.3,1.47,1.47,0,0,1,.56-.1,1.56,1.56,0,0,1,.57.1,1.36,1.36,0,0,1,.75.76,1.51,1.51,0,0,1,0,1.13Zm-1-.41a.5.5,0,0,0,.47-.54.53.53,0,0,0-.17-.44.75.75,0,0,0-.53-.16h-.78v2h.37V36.8h.27l.49.81h.39Zm-.2-.3h-.44V35.9h.44a.42.42,0,0,1,.16,0,.16.16,0,0,1,.11.08.26.26,0,0,1,0,.16.32.32,0,0,1,0,.16.44.44,0,0,1-.11.09A.41.41,0,0,1,357.61,36.46Z"/><path class="cls-2" d="M476.51,40.16h14v-14h-14Zm15.7,0h14v-14h-14Zm-15.7-15.71h14v-14h-14Zm15.7,0h14v-14h-14Z"/><path class="cls-2" d="M538.57,16l-4.88,17.82h-3.35L527,21.35a9.21,9.21,0,0,1-.26-1.74h-.05a8.05,8.05,0,0,1-.3,1.71l-3.41,12.49h-3.41l-5-17.81h3.23L521,29.05a8.6,8.6,0,0,1,.25,1.71h.07a9.93,9.93,0,0,1,.34-1.71l3.65-13h3l3.37,13.14a10.14,10.14,0,0,1,.26,1.59h.06a9.82,9.82,0,0,1,.28-1.64L535.51,16h3.06Z"/><path class="cls-2" d="M541.28,19.29a1.67,1.67,0,0,1-1.21-.47,1.6,1.6,0,0,1,0-2.34,1.67,1.67,0,0,1,1.21-.47,1.73,1.73,0,0,1,1.24.47,1.5,1.5,0,0,1,.51,1.18,1.49,1.49,0,0,1-.51,1.15,1.74,1.74,0,0,1-1.24.48m1.44,14.53h-2.88V21.09h2.88Z"/><path class="cls-2" d="M556.92,33.82H554V26.64q0-3.55-2.53-3.56a2.79,2.79,0,0,0-2.18,1,3.65,3.65,0,0,0-.86,2.5v7.26h-2.9V21.09h2.9V23.2h0a4.55,4.55,0,0,1,4.13-2.41,3.86,3.86,0,0,1,3.17,1.34,6.08,6.08,0,0,1,1.1,3.9Z"/><path class="cls-2" d="M571.12,33.82h-2.88V31.65h-.06a5,5,0,0,1-8,.74,7,7,0,0,1-1.42-4.65,7.75,7.75,0,0,1,1.57-5.06,5.14,5.14,0,0,1,4.15-1.91,4,4,0,0,1,3.75,2.06h.06V15h2.88ZM568.28,28V26.34a3.24,3.24,0,0,0-.88-2.3,3,3,0,0,0-2.25-.95,3,3,0,0,0-2.54,1.21,5.38,5.38,0,0,0-.92,3.35,4.82,4.82,0,0,0,.89,3.06A2.88,2.88,0,0,0,565,31.83a3,3,0,0,0,2.4-1.08,4.25,4.25,0,0,0,.91-2.75"/><path class="cls-2" d="M579.64,34.11a6.29,6.29,0,0,1-4.71-1.79,6.46,6.46,0,0,1-1.76-4.73,6.71,6.71,0,0,1,1.84-5A6.74,6.74,0,0,1,580,20.79a6.14,6.14,0,0,1,4.65,1.75,6.77,6.77,0,0,1,1.66,4.86,6.71,6.71,0,0,1-1.79,4.88,6.48,6.48,0,0,1-4.83,1.83m.13-11a3.32,3.32,0,0,0-2.67,1.18,4.89,4.89,0,0,0-1,3.25,4.71,4.71,0,0,0,1,3.16,3.33,3.33,0,0,0,2.66,1.15,3.19,3.19,0,0,0,2.62-1.12,5.09,5.09,0,0,0,.92-3.23,5,5,0,0,0-.92-3.24,3.11,3.11,0,0,0-2.61-1.15"/><path class="cls-2" d="M605.42,21.09l-3.76,12.73h-3l-2.32-8.63a5.14,5.14,0,0,1-.18-1.13h0a6.22,6.22,0,0,1-.22,1.1l-2.51,8.65h-3l-3.72-12.72h3L592,30.27a7.34,7.34,0,0,1,.15,1.09h.08a6.4,6.4,0,0,1,.21-1.12L595,21.09h2.71l2.29,9.2a8,8,0,0,1,.16,1.1h.09a5.4,5.4,0,0,1,.19-1.1l2.26-9.2Z"/><path class="cls-2" d="M605.87,33.42V30.75A5.75,5.75,0,0,0,609.44,32c1.74,0,2.6-.51,2.6-1.54a1.24,1.24,0,0,0-.22-.74,2.08,2.08,0,0,0-.6-.53,5.69,5.69,0,0,0-.89-.43l-1.16-.42a14.35,14.35,0,0,1-1.41-.66,3.73,3.73,0,0,1-1-.8,3,3,0,0,1-.63-1,3.69,3.69,0,0,1-.21-1.3,3,3,0,0,1,.44-1.62,3.66,3.66,0,0,1,1.17-1.18,5.81,5.81,0,0,1,1.66-.73,7.6,7.6,0,0,1,1.92-.24,8.64,8.64,0,0,1,3.15.53v2.53a5.25,5.25,0,0,0-3.08-.92,4.22,4.22,0,0,0-1,.11,2.17,2.17,0,0,0-.76.31,1.57,1.57,0,0,0-.48.48,1.23,1.23,0,0,0-.17.62,1.3,1.3,0,0,0,.17.7,1.53,1.53,0,0,0,.53.51,4.18,4.18,0,0,0,.82.39c.31.13.68.25,1.1.4a12.52,12.52,0,0,1,1.46.69,4.76,4.76,0,0,1,1.12.79,3.17,3.17,0,0,1,.71,1,3.53,3.53,0,0,1,.25,1.37,3.12,3.12,0,0,1-.46,1.69,3.76,3.76,0,0,1-1.19,1.19,5.31,5.31,0,0,1-1.72.7,9,9,0,0,1-2,.23,9.17,9.17,0,0,1-3.61-.71"/><path class="cls-2" d="M626,15.6V33.82h-2.88V19.13a9.17,9.17,0,0,1-1.68.94,13.42,13.42,0,0,1-2.06.69V18.3c.48-.15.94-.33,1.38-.49a13.2,13.2,0,0,0,1.32-.59,14.45,14.45,0,0,0,1.32-.73c.44-.26.9-.56,1.37-.9H626Z"/><path class="cls-2" d="M635.35,15.6V33.82h-2.88V19.13a8.94,8.94,0,0,1-1.69.94,13.06,13.06,0,0,1-2.06.69V18.3c.48-.15.95-.33,1.39-.49s.89-.37,1.32-.59a13.1,13.1,0,0,0,1.31-.73c.44-.26.91-.56,1.38-.9h1.23Z"/><rect class="cls-2" x="0.78" y="0.6" width="174.18" height="49.39"/><path class="cls-3" d="M.83,49.86h174V.73H.83Zm174.55.52H.31V.2H175.38Z"/><path class="cls-3" d="M38.41,35.51H36.59l-.09.1v1.52l.09.1h1.82c.57,0,1-.19,1-.86s-.38-.86-1-.86m0,2.86H36.59l-.09.1V41l-.1.09H35.26l-.1-.09V34.46l.1-.09h3.15c1.33,0,2.28.66,2.28,2S39.74,38.37,38.41,38.37Z"/><path class="cls-3" d="M44.13,36.08H44l-.86,2.29.09.1H44.9l.09-.1-.86-2.29Zm2.77,5H46l-.1-.09-.47-1.24-.19-.1H42.89l-.19.1L42.22,41l-.09.09h-.86L41.18,41V40l2.19-5.53.1-.1H44.7l.1.1L47,40v1Z"/><path class="cls-3" d="M51.76,35.51H50l-.09.1v1.52l.09.1h1.81c.58,0,1-.19,1-.86s-.38-.86-1-.86m.86,2.77v.09L53.86,40v1l-.09.09H53.2L53,41l-1.9-2.48-.19-.1H50l-.09.1V41l-.1.09H48.62l-.1-.09V34.46l.1-.09h3.14c1.34,0,2.29.66,2.29,2a1.88,1.88,0,0,1-1.43,1.91"/><polygon class="cls-3" points="60.54 35.51 58.64 35.51 58.54 35.6 58.54 40.95 58.45 41.04 57.3 41.04 57.21 40.95 57.21 35.6 57.11 35.51 55.2 35.51 55.11 35.41 55.11 34.46 55.2 34.37 60.54 34.37 60.64 34.46 60.64 35.41 60.54 35.51"/><polygon class="cls-3" points="62.07 34.37 63.41 34.37 63.6 34.46 66.17 38.85 66.27 38.85 66.27 34.46 66.37 34.37 67.51 34.37 67.61 34.46 67.61 40.95 67.51 41.04 66.17 41.04 65.98 40.95 63.41 36.56 63.31 36.56 63.31 40.95 63.22 41.04 62.07 41.04 61.98 40.95 61.98 34.46 62.07 34.37"/><polygon class="cls-3" points="74.28 41.04 69.8 41.04 69.71 40.95 69.71 34.46 69.8 34.37 74.28 34.37 74.38 34.46 74.38 35.42 74.28 35.51 71.14 35.51 71.04 35.6 71.04 36.94 71.14 37.04 74.09 37.04 74.19 37.13 74.19 38.09 74.09 38.18 71.14 38.18 71.04 38.27 71.04 39.8 71.14 39.9 74.28 39.9 74.38 39.99 74.38 40.95 74.28 41.04"/><path class="cls-3" d="M79.54,35.51H77.72l-.09.1v1.52l.09.1h1.82c.57,0,.95-.19.95-.86s-.38-.86-.95-.86m.85,2.77v.09L81.63,40v1l-.09.09H81L80.78,41l-1.91-2.48-.19-.1h-1l-.09.1V41l-.1.09H76.39l-.1-.09V34.46l.1-.09h3.15c1.33,0,2.28.66,2.28,2a1.88,1.88,0,0,1-1.43,1.91"/><path class="cls-3" d="M91,35.51H89.17l-.09.1v1.52l.09.1H91c.57,0,1-.19,1-.86s-.38-.86-1-.86m0,2.86H89.17l-.09.1V41L89,41H87.84l-.1-.09V34.46l.1-.09H91c1.33,0,2.29.66,2.29,2S92.32,38.37,91,38.37Z"/><path class="cls-3" d="M97.86,35.51H96l-.09.1v1.52l.09.1h1.82c.57,0,1-.19,1-.86s-.38-.86-1-.86m.86,2.77v.09L100,40v1l-.1.09h-.57L99.1,41l-1.91-2.48-.19-.1H96l-.09.1V41l-.1.09H94.71l-.1-.09V34.46l.1-.09h3.15c1.33,0,2.29.66,2.29,2a1.89,1.89,0,0,1-1.43,1.91"/><path class="cls-3" d="M104.73,35.42c-1.24,0-1.91.95-1.91,2.28s.67,2.29,1.91,2.29,1.91-1,1.91-2.29S106,35.42,104.73,35.42Zm0,5.72a3.16,3.16,0,0,1-3.24-3.44,3.25,3.25,0,1,1,6.48,0A3.16,3.16,0,0,1,104.73,41.14Z"/><path class="cls-3" d="M115.32,41h-.86l-.09-.09-.1-.48h-.09a2.24,2.24,0,0,1-1.72.67,3.14,3.14,0,0,1-3.15-3.44,3.15,3.15,0,0,1,3.24-3.43c2,0,2.67,1,2.86,2l-.09.1h-1.15l-.09-.1a1.44,1.44,0,0,0-1.53-.85c-1.24,0-1.91.95-1.91,2.28s.67,2.29,1.91,2.29c1,0,1.53-.57,1.53-1.33l-.1-.1h-1.62l-.09-.09v-1l.09-.09h3l.09.09V41l-.09.09Z"/><path class="cls-3" d="M120.57,35.51h-1.81l-.1.1v1.52l.1.1h1.81c.57,0,1-.19,1-.86s-.38-.86-1-.86m.86,2.77v.09L122.67,40v1l-.1.09H122l-.19-.09-1.91-2.48-.19-.1h-.95l-.1.1V41l-.09.09h-1.15l-.09-.09V34.46l.09-.09h3.15c1.33,0,2.29.66,2.29,2a1.89,1.89,0,0,1-1.43,1.91"/><path class="cls-3" d="M127.15,36.08h-.09l-.86,2.29.1.1h1.62l.09-.1Zm2.77,5h-.86L129,41l-.48-1.24-.19-.1h-2.39l-.19.1L125.25,41l-.1.09h-.86L124.2,41V40l2.19-5.53.1-.1h1.24l.09.1L130,40v1l-.1.09Z"/><polygon class="cls-3" points="138.6 41.04 137.46 41.04 137.36 40.95 137.36 37.23 137.27 37.23 135.74 40.95 135.65 41.04 134.6 41.04 134.5 40.95 132.98 37.23 132.88 37.23 132.88 40.95 132.78 41.04 131.64 41.04 131.55 40.95 131.55 34.46 131.64 34.37 133.07 34.37 133.17 34.46 135.07 39.13 135.17 39.13 137.08 34.46 137.17 34.37 138.6 34.37 138.7 34.46 138.7 40.95 138.6 41.04"/><path class="cls-3" d="M71.23,11.81v-.59L71,11H60.77l-.2.2v.59l.2.2h4.34l.2.2V24.65l.2.2h.79l.19-.2V12.21l.2-.2H71l.19-.2Zm5.33,7.51H70.63l-.2-.2a3.17,3.17,0,1,1,6.33,0Zm1.18,1,.2-.2v-.59c0-2.77-1.58-4.75-4.35-4.75s-4.34,2-4.34,4.75v.39c0,2.76,1.38,5.13,4.54,5.13a3.62,3.62,0,0,0,3.95-3l-.2-.2h-.79l-.19.2a2.64,2.64,0,0,1-2.77,2,3.44,3.44,0,0,1-3.36-3.56l.2-.19Zm2.18-.4c0-2.77,1.38-4.15,3.35-4.15a2.72,2.72,0,0,1,3,2.37l.19.2h.79l.2-.2c-.2-2-1.78-3.36-4.15-3.36-2.56,0-4.54,1.58-4.54,5.14S80.7,25,83.27,25c2.37,0,4-1.38,4.15-3.35l-.2-.2h-.79l-.19.2a2.72,2.72,0,0,1-3,2.37C81.3,24.06,79.92,22.67,79.92,19.91Zm17,4.74V18.72c0-2.56-1.38-3.95-3.55-3.95a3.59,3.59,0,0,0-3.16,1.59H90V11.22l-.2-.2H89l-.2.2V24.65l.2.2h.79l.2-.2V19.32c0-2.18,1-3.56,3.16-3.56,1.58,0,2.57,1,2.57,3v5.93l.19.2h.8l.19-.2Zm10.07,0V18.72c0-2.56-1.38-3.95-3.55-3.95a3.59,3.59,0,0,0-3.16,1.59h-.2l-.19-1.19-.2-.2h-.59l-.2.2v9.48l.2.2h.79l.19-.2V19.32c0-2.18,1-3.56,3.16-3.56,1.58,0,2.57,1,2.57,3v5.93l.2.2h.79l.2-.2Zm5.73.39c2.57,0,4.55-1.77,4.55-5.13s-2-5.14-4.55-5.14-4.54,1.78-4.54,5.14S110.14,25,112.7,25Zm0-9.28c2,0,3.36,1.58,3.36,4.15s-1.38,4.15-3.36,4.15-3.35-1.58-3.35-4.15S110.73,15.76,112.7,15.76Zm7.11,8.89V11.22l-.19-.2h-.79l-.2.2V24.65l.2.2h.79l.19-.2Zm5.93.39c2.57,0,4.54-1.77,4.54-5.13s-2-5.14-4.54-5.14-4.54,1.78-4.54,5.14S123.17,25,125.74,25Zm0-9.28c2,0,3.36,1.58,3.36,4.15s-1.39,4.15-3.36,4.15-3.36-1.58-3.36-4.15S123.76,15.76,125.74,15.76Zm12.84,7.7c0,2.57-.6,4.55-3,4.55-1.78,0-2.37-.79-2.56-1.78l-.2-.2h-.79l-.2.2c.2,1.58,1.38,2.76,3.75,2.76,2.57,0,4.15-1.58,4.15-5.52v-8.3l-.2-.2H139l-.2.2-.19,1.19h-.2a3.29,3.29,0,0,0-3.16-1.59c-2.76,0-4.15,2.18-4.15,5.14s1.39,5.14,4.15,5.14a3.29,3.29,0,0,0,3.16-1.58h.2Zm-3.16.6c-2,0-3.16-1.39-3.16-4.15s1.18-4.15,3.16-4.15,3.16,1.38,3.16,4.15S137.39,24.06,135.42,24.06Zm7.5-10.87V12l-.2-.2h-.79l-.19.2v1.18l.19.2h.79Zm0,11.46V15.17l-.2-.2h-.79l-.19.2v9.48l.19.2h.79l.2-.2Zm8.69-5.33h-5.92l-.2-.2a3.17,3.17,0,1,1,6.32,0l-.2.2Zm1.19,1,.19-.2v-.59c0-2.77-1.58-4.75-4.34-4.75s-4.34,2-4.34,4.75v.39c0,2.76,1.38,5.13,4.54,5.13a3.63,3.63,0,0,0,4-3l-.2-.2h-.79l-.2.2a2.62,2.62,0,0,1-2.76,2,3.44,3.44,0,0,1-3.36-3.56l.2-.19Zm8.49,2c0-1.78-1-2.56-3-3s-3.16-.59-3.16-2c0-1,.79-1.58,2.18-1.58,1.78,0,2.37.79,2.37,1.78l.19.2h.79l.2-.2c0-2-1.58-2.76-3.55-2.76-2.18,0-3.36,1.18-3.36,2.56,0,1.58,1.18,2.38,3.16,2.77s3,.59,3,2.17c0,1-.59,1.78-2.57,1.78-1.77,0-2.56-1-2.56-2.17l-.2-.2H154l-.2.2c0,1.77,1.39,3.15,3.76,3.15,2.56,0,3.75-1.18,3.75-2.76"/><path class="cls-3" d="M16.87,22.1V13.77h2.46a4,4,0,0,1,3.77,4.17,4,4,0,0,1-3.77,4.16Zm2.46,2.75A6.91,6.91,0,0,0,26,19.68l7.82,6.11,7.82-6.11v5.17h8.92V22.1H44.8V11H41.66v5.17l-7.5,5.86-1.68-1.31,3.59-2.8L40,14.88l-2.23-1.74L30.25,19l-1.67-1.31,7.49-5.86-2.23-1.74L26,16.2A6.91,6.91,0,0,0,19.33,11H13.72V24.85ZM60.57,22.1v2.75H51.65V11h3.14V22.1Z"/></svg>